<?xml version="1.0" encoding="UTF-8" standalone="no"?>
<!DOCTYPE svg PUBLIC "-//W3C//DTD SVG 1.1//EN" "http://www.w3.org/Graphics/SVG/1.1/DTD/svg11.dtd">
<svg version="1.1" xmlns="http://www.w3.org/2000/svg" xmlns:xlink="http://www.w3.org/1999/xlink" preserveAspectRatio="xMidYMid meet" viewBox="0 0 100 100" width="100" height="100"><defs><path d="M86.39 1.36L65.44 25.26L73.14 28.96L58.08 46.25L92.22 28.68L81.22 23.4L98.49 7.17L86.39 1.36Z" id="aklcylxsl"></path><path d="M100 84.22L77.23 61.74L72.9 69.99L56.42 53.81L71.76 90.44L77.95 78.66L93.19 97.19L100 84.22Z" id="b1H0r0z2wV"></path><path d="M6 64.47L35.88 60.48L31.85 52.07L53.4 49.12L16.61 38.71L22.37 50.71L-0.33 51.26L6 64.47Z" id="c752DHHdbl"></path><path d="M54.16 10.62L60.38 11.43L55.88 15.37L56.94 20.93L51.37 18.31L45.81 20.93L46.88 15.37L42.38 11.43L48.59 10.62L51.37 5.56L54.16 10.62Z" id="a4aFcumkB"></path><path d="M27.34 26.24L33.56 27.05L29.06 30.99L30.12 36.55L24.56 33.92L19 36.55L20.06 30.99L15.56 27.05L21.78 26.24L24.56 21.18L27.34 26.24Z" id="b6ihH7Xfo5"></path><path d="M25.41 73.31L31.63 74.12L27.13 78.06L28.19 83.62L22.62 80.99L17.06 83.62L18.13 78.06L13.63 74.12L19.84 73.31L22.62 68.25L25.41 73.31Z" id="a3TMOsaYm"></path><path d="M53.84 84.74L60.06 85.55L55.56 89.49L56.62 95.05L51.06 92.42L45.5 95.05L46.56 89.49L42.06 85.55L48.28 84.74L51.06 79.68L53.84 84.74Z" id="j1OnZs774"></path><path d="M87.78 46.93L94 47.74L89.5 51.68L90.56 57.24L85 54.61L79.44 57.24L80.5 51.68L76 47.74L82.22 46.93L85 41.87L87.78 46.93Z" id="d1WPIg2Mft"></path></defs><g><g><g><use xlink:href="#aklcylxsl" opacity="1" fill="#ffff00" fill-opacity="1"></use></g><g><use xlink:href="#b1H0r0z2wV" opacity="1" fill="#ffff00" fill-opacity="1"></use></g><g><use xlink:href="#c752DHHdbl" opacity="1" fill="#ffff00" fill-opacity="1"></use></g><g><use xlink:href="#a4aFcumkB" opacity="1" fill="#ff6900" fill-opacity="1"></use></g><g><use xlink:href="#b6ihH7Xfo5" opacity="1" fill="#ff6900" fill-opacity="1"></use></g><g><use xlink:href="#a3TMOsaYm" opacity="1" fill="#ff6900" fill-opacity="1"></use></g><g><use xlink:href="#j1OnZs774" opacity="1" fill="#ff6900" fill-opacity="1"></use></g><g><use xlink:href="#d1WPIg2Mft" opacity="1" fill="#ff6900" fill-opacity="1"></use></g></g></g></svg>